<svg width="68" height="66" viewBox="0 0 68 66" fill="none" xmlns="http://www.w3.org/2000/svg">
<path d="M37.6306 4.30078L37.6304 4.26008C37.6304 2.30008 35.9802 0.666748 34 0.666748C32.0198 0.666748 30.3697 2.30008 30.3697 4.26008L30.3694 4.30102C30.3279 9.92228 28.4658 15.0946 25.3457 19.2866C25.0508 19.6828 24.7447 20.0702 24.4278 20.4484C23.3426 21.7436 22.1313 22.9309 20.8128 23.9921C20.4574 24.2781 20.0943 24.555 19.7238 24.8223C15.3945 27.9463 10.0538 29.773 4.29705 29.7401L4.25448 29.7403C2.29324 29.7635 0.666687 31.3875 0.666687 33.3334C0.666687 35.2794 2.29324 36.9033 4.25448 36.9265L4.29705 36.9267C10.0437 36.8939 15.3758 38.7274 19.7011 41.8518C20.0758 42.1225 20.443 42.4029 20.8022 42.6926C22.117 43.7529 23.3254 44.9379 24.4085 46.2294C24.7277 46.61 25.0359 46.9998 25.3329 47.3984C28.4607 51.5972 30.3279 56.7693 30.3694 62.366L30.3697 62.4067C30.3697 64.3667 32.0198 66.0001 34 66.0001C35.9802 66.0001 37.6304 64.3667 37.6304 62.4067L37.6306 62.3658C37.6721 56.7445 39.5342 51.5722 42.6543 47.3803C42.9492 46.9841 43.2554 46.5966 43.5723 46.2184C44.6574 44.9232 45.8688 43.736 47.1873 42.6747C47.5426 42.3887 47.9057 42.1118 48.2762 41.8445C52.6055 38.7206 57.9462 36.8938 63.703 36.9267L63.7456 36.9265C65.7068 36.9033 67.3334 35.2794 67.3334 33.3334C67.3334 31.3875 65.7068 29.7635 63.7456 29.7403L63.703 29.7401C57.9563 29.773 52.6242 27.9394 48.299 24.815C47.9242 24.5443 47.557 24.2639 47.1978 23.9742C45.883 22.9139 44.6747 21.7289 43.5916 20.4374C43.2724 20.0568 42.9641 19.667 42.6672 19.2684C39.5393 15.0697 37.6722 9.8975 37.6306 4.30078Z" fill="white"/>
</svg>
