<svg width="32" height="32" viewBox="0 0 32 32" fill="none" xmlns="http://www.w3.org/2000/svg">
<path fill-rule="evenodd" clip-rule="evenodd" d="M32 16C32 16.978 31.2261 17.7604 30.2588 17.7604C23.3906 17.7213 17.7993 23.2958 17.7412 30.2396C17.7412 31.2176 16.9674 32 16 32C15.0326 32 14.2588 31.2176 14.2588 30.2396C14.2007 23.2958 8.60943 17.7213 1.74123 17.7604C0.773883 17.7604 0 16.978 0 16C0 15.022 0.773883 14.2396 1.74123 14.2396C8.60943 14.2787 14.2007 8.70416 14.2588 1.76039C14.2588 0.782398 15.0326 -4.24407e-08 16 0C16.9674 4.24419e-08 17.7412 0.782398 17.7412 1.76039C17.7993 8.6846 23.3906 14.2787 30.2588 14.2396C31.2261 14.2396 32 15.022 32 16ZM6.96798 16C11.1533 14.4682 14.4724 11.1229 16.0015 6.90417C17.532 11.1166 20.8502 14.4651 25.0349 15.9989C20.8495 17.5298 17.53 20.874 16 25.0918C14.4703 20.8749 11.152 17.5314 6.96798 16Z" fill="#FFA800"/>
</svg>
